<svg width="46" height="40" viewBox="0 0 46 40" fill="none" xmlns="http://www.w3.org/2000/svg">
<g clip-path="url(#clip0_178_261)">
<path d="M3.04326 39.6664L9.34587 10.6936C9.34587 10.6936 0.252111 7.61196 0.342148 39.6664H3.04326Z" fill="#02120B" stroke="#02120B" stroke-width="0.75" stroke-miterlimit="10"/>
<path d="M28.6949 39.7366V19.8771L19.5291 10.676C19.5291 10.676 0.342144 12.9236 0.342144 39.6488L28.6949 39.7366Z" fill="#02120B" stroke="#02120B" stroke-width="0.25" stroke-miterlimit="10"/>
<path d="M29.5322 19.9912L19.475 10.0088L19.6821 1.17645L38.2838 20.1844L29.5322 19.9912Z" fill="#02120B" stroke="#02120B" stroke-width="0.25" stroke-miterlimit="10"/>
<path d="M24.9133 5.40827L23.4547 1.43987L27.2002 2.82706C28.2567 1.74185 29.5801 0.937952 31.0448 0.491676C31.0448 0.491676 36.7172 -0.11412 37.7886 0.561911C37.7886 0.561911 45.4958 -0.316052 45.892 0.342421C45.892 0.342421 46.2881 4.42495 44.8025 4.96929C44.8025 4.96929 38.2298 9.403 37.7886 9.3591C37.7886 9.3591 33.935 13.4153 34.3942 15.2327L24.9133 5.40827Z" fill="#02120B" stroke="#02120B" stroke-width="0.25" stroke-miterlimit="10"/>
<path d="M6.63575 36.0843H16.4408C16.4408 36.0843 20.9426 35.4785 19.9882 39.6664" fill="#02120B"/>
<path d="M6.63575 36.0843H16.4408C16.4408 36.0843 20.9426 35.4785 19.9882 39.6664" stroke="#02120B" stroke-width="0.75" stroke-miterlimit="10"/>
<path d="M29.1991 36.0316C29.1991 36.0316 33.845 35.4609 33.872 39.719H29.1991V36.0316Z" fill="#02120B" stroke="#02120B" stroke-width="0.25" stroke-miterlimit="10"/>
<path d="M24.0219 24.0035V36.1107C24.0219 36.1107 28.4067 35.3732 28.6949 39.7366" fill="#02120B"/>
<path d="M24.0219 24.0035V36.1107C24.0219 36.1107 28.4067 35.3732 28.6949 39.7366" stroke="#02120B" stroke-width="0.75" stroke-miterlimit="10"/>
</g>
<defs>
<clipPath id="clip0_178_261">
<rect width="46" height="40" fill="white"/>
</clipPath>
</defs>
</svg>
